<?xml version="1.0"?>
<svg xmlns="http://www.w3.org/2000/svg" xmlns:xlink="http://www.w3.org/1999/xlink" xmlns:svgjs="http://svgjs.com/svgjs" version="1.1" width="512" height="512" x="0" y="0" viewBox="0 0 512 512" style="enable-background:new 0 0 512 512" xml:space="preserve" class=""><g><path xmlns="http://www.w3.org/2000/svg" d="m72 152h416v176h-416z" fill="#fbc079" data-original="#a82a27" style="" class=""/><path xmlns="http://www.w3.org/2000/svg" d="m190.154 184h-166.154v32 144h149.538 282.462v-176z" fill="#ffa500" data-original="#eb423f" style="" class=""/><path xmlns="http://www.w3.org/2000/svg" d="m296 272a24 24 0 1 1 24-24 24.027 24.027 0 0 1 -24 24zm0-32a8 8 0 1 0 8 8 8.009 8.009 0 0 0 -8-8z" fill="#e9eef2" data-original="#e9eef2" style="" class=""/><path xmlns="http://www.w3.org/2000/svg" d="m360 320a24 24 0 1 1 24-24 24.027 24.027 0 0 1 -24 24zm0-32a8 8 0 1 0 8 8 8.009 8.009 0 0 0 -8-8z" fill="#e9eef2" data-original="#e9eef2" style="" class=""/><path xmlns="http://www.w3.org/2000/svg" d="m296 320a8 8 0 0 1 -6.242-13l64-80a8 8 0 1 1 12.494 10l-64 80a7.984 7.984 0 0 1 -6.252 3z" fill="#e9eef2" data-original="#e9eef2" style="" class=""/><g xmlns="http://www.w3.org/2000/svg" fill="#eba72e"><circle cx="216" cy="240" r="8" fill="#eba72e" data-original="#eba72e" style="" class=""/><circle cx="216" cy="208" r="8" fill="#eba72e" data-original="#eba72e" style="" class=""/><circle cx="216" cy="272" r="8" fill="#eba72e" data-original="#eba72e" style="" class=""/><circle cx="216" cy="304" r="8" fill="#eba72e" data-original="#eba72e" style="" class=""/><circle cx="216" cy="336" r="8" fill="#eba72e" data-original="#eba72e" style="" class=""/></g><path xmlns="http://www.w3.org/2000/svg" d="m168 320h-96a8 8 0 0 1 -8-8v-48a8 8 0 0 1 8-8h96a8 8 0 0 1 8 8v48a8 8 0 0 1 -8 8zm-88-16h80v-32h-80z" fill="#fbc079" data-original="#a82a27" style="" class=""/><path xmlns="http://www.w3.org/2000/svg" d="m104 320a8 8 0 0 1 -8-8v-48a8 8 0 0 1 16 0v48a8 8 0 0 1 -8 8z" fill="#fbc079" data-original="#a82a27" style="" class=""/><path xmlns="http://www.w3.org/2000/svg" d="m136 320a8 8 0 0 1 -8-8v-48a8 8 0 0 1 16 0v48a8 8 0 0 1 -8 8z" fill="#fbc079" data-original="#a82a27" style="" class=""/><path xmlns="http://www.w3.org/2000/svg" d="m168 240h-96a8 8 0 0 1 0-16h96a8 8 0 0 1 0 16z" fill="#fbc079" data-original="#a82a27" style="" class=""/></g></svg>
